<svg xmlns="http://www.w3.org/2000/svg" viewBox="0 0 53.04 37.03"><defs><style>.cls-1{fill:none;stroke:#d5d5d5;stroke-linecap:round;stroke-linejoin:round;}.cls-2{fill:#d6d6d6;}</style></defs><title>Asset 14</title><g id="Layer_2" data-name="Layer 2"><g id="Layer_1-2" data-name="Layer 1"><g id="Correct_User" data-name="Correct User"><path class="cls-1" d="M5.36,10.86l-.19,0a1.67,1.67,0,0,0,0,3.34l.19,0a7.34,7.34,0,0,0,14.3,0l.19,0a1.67,1.67,0,0,0,0-3.34l-.19,0"/><path class="cls-1" d="M5.5,7.51h2a0,0,0,0,1,0,0V9.84a2,2,0,0,1-2,2h0a0,0,0,0,1,0,0V7.51A0,0,0,0,1,5.5,7.51Z"/><path class="cls-1" d="M17.18,7.51H5.5a5,5,0,0,1,5-5H14a10,10,0,0,0,4.2-.92L20.52.5V4.17A3.35,3.35,0,0,1,17.18,7.51Z"/><path class="cls-1" d="M17.51,7.47v2.7a1.67,1.67,0,0,0,1.67,1.67h.34V6.55A3.32,3.32,0,0,1,17.51,7.47Z"/><circle class="cls-2" cx="14.85" cy="11.51" r="0.67"/><circle class="cls-2" cx="10.18" cy="11.51" r="0.67"/><path class="cls-1" d="M10.15,14.87a3.34,3.34,0,0,0,4.72,0"/><line class="cls-1" x1="5.84" y1="36.53" x2="5.84" y2="29.86"/><line class="cls-1" x1="5.84" y1="31.19" x2="0.5" y2="31.19"/><line class="cls-1" x1="24.52" y1="31.19" x2="19.18" y2="31.19"/><line class="cls-1" x1="5.84" y1="36.53" x2="5.84" y2="29.86"/><path class="cls-1" d="M24.52,36.53V27.82a5,5,0,0,0-3-4.6l-6.31-2.7h0a3.21,3.21,0,0,1-5.34,0h0l-6.31,2.7a5,5,0,0,0-3,4.6v8.71"/><line class="cls-1" x1="19.18" y1="36.53" x2="19.18" y2="29.86"/><path class="cls-1" d="M12.51,19.85a7.21,7.21,0,0,1-2.67-.51v1.18h0a3.21,3.21,0,0,0,5.34,0h0V19.34A7.21,7.21,0,0,1,12.51,19.85Z"/></g><g id="Wrong_User" data-name="Wrong User"><path class="cls-1" d="M33.39,10.86l-.2,0a1.67,1.67,0,0,0,0,3.34l.2,0a7.33,7.33,0,0,0,14.29,0l.19,0a1.67,1.67,0,1,0,0-3.34l-.19,0"/><path class="cls-1" d="M33.53,7.51h2a0,0,0,0,1,0,0V9.84a2,2,0,0,1-2,2h0a0,0,0,0,1,0,0V7.51A0,0,0,0,1,33.53,7.51Z"/><path class="cls-1" d="M45.21,7.51H33.53a5,5,0,0,1,5-5H42a10,10,0,0,0,4.19-.92L48.54.5V4.17A3.34,3.34,0,0,1,45.21,7.51Z"/><path class="cls-1" d="M45.54,7.47v2.7a1.67,1.67,0,0,0,1.67,1.67h.33V6.55A3.32,3.32,0,0,1,45.54,7.47Z"/><circle class="cls-2" cx="42.87" cy="11.51" r="0.67"/><circle class="cls-2" cx="38.2" cy="11.51" r="0.67"/><path class="cls-1" d="M42.89,15.54a3.31,3.31,0,0,0-4.71,0"/><line class="cls-1" x1="33.86" y1="36.53" x2="33.86" y2="29.86"/><line class="cls-1" x1="33.86" y1="31.19" x2="28.52" y2="31.19"/><line class="cls-1" x1="52.54" y1="31.19" x2="47.21" y2="31.19"/><line class="cls-1" x1="33.86" y1="36.53" x2="33.86" y2="29.86"/><path class="cls-1" d="M52.54,36.53V27.82a5,5,0,0,0-3-4.6l-6.31-2.7h0a3.2,3.2,0,0,1-5.33,0h0l-6.31,2.7a5,5,0,0,0-3,4.6v8.71"/><line class="cls-1" x1="47.21" y1="36.53" x2="47.21" y2="29.86"/><path class="cls-1" d="M40.53,19.85a7.12,7.12,0,0,1-2.66-.51v1.18h0a3.2,3.2,0,0,0,5.33,0h0V19.34A7.13,7.13,0,0,1,40.53,19.85Z"/></g></g></g></svg>