<svg xmlns="http://www.w3.org/2000/svg" viewBox="0 0 47 22.08"><defs><style>.cls-1{fill:none;stroke:#ced6e0;stroke-linecap:round;stroke-linejoin:round;}</style></defs><title>Asset 13</title><g id="Layer_2" data-name="Layer 2"><g id="Layer_2-2" data-name="Layer 2"><path class="cls-1" d="M46.28,19.81c0-.1.06-.19.09-.29a1.82,1.82,0,0,0,.07-.25,2.6,2.6,0,0,0,.06-.56V4.33a2.88,2.88,0,0,0-5.75,0v7.44L30.32,1.34a2.87,2.87,0,0,0-4.06,4.07L36.68,15.83H29.25a2.88,2.88,0,0,0,0,5.75H43.62a3.66,3.66,0,0,0,.57,0l.25-.08c.09,0,.19-.05.28-.09a2.44,2.44,0,0,0,.28-.14,2.39,2.39,0,0,0,.22-.12,2.9,2.9,0,0,0,.8-.8l.11-.21A2.49,2.49,0,0,0,46.28,19.81Z"/><path class="cls-1" d="M21.53,2.81a2.25,2.25,0,0,0-.08-.24,1.4,1.4,0,0,0-.09-.29A2.44,2.44,0,0,0,21.22,2a2.39,2.39,0,0,0-.12-.22,2.9,2.9,0,0,0-.8-.8L20.09.87c-.1-.05-.18-.11-.28-.15L19.52.63a1.82,1.82,0,0,0-.25-.07A2.6,2.6,0,0,0,18.71.5H4.33a2.88,2.88,0,0,0,0,5.75h7.44L1.34,16.68a2.87,2.87,0,0,0,4.07,4.06L15.83,10.32v7.43a2.88,2.88,0,0,0,5.75,0V3.38A3.66,3.66,0,0,0,21.53,2.81Z"/></g></g></svg>