<svg xmlns="http://www.w3.org/2000/svg" viewBox="0 0 54 43.15"><defs><style>.cls-1,.cls-3{fill:none;stroke:#d5d5d5;stroke-linejoin:round;}.cls-1{stroke-linecap:round;}.cls-2{fill:#ced6e0;}.cls-3{stroke-linecap:square;}</style></defs><title>Asset 12</title><g id="Layer_2" data-name="Layer 2"><g id="Layer_3" data-name="Layer 3"><line class="cls-1" x1="15.2" y1="41.12" x2="11.61" y2="41.12"/><line class="cls-1" x1="10.17" y1="41.12" x2="9.46" y2="41.12"/><line class="cls-1" x1="40.08" y1="33.02" x2="43.67" y2="33.02"/><line class="cls-1" x1="45.11" y1="33.02" x2="45.83" y2="33.02"/><circle class="cls-1" cx="31.8" cy="9.94" r="4.31"/><path class="cls-1" d="M35.52,8.78l.39-.12a4.3,4.3,0,0,0-8.09-.37l.37.15A10.75,10.75,0,0,0,35.52,8.78Z"/><path class="cls-1" d="M23.41,30.19,19.62,41.11A.72.72,0,0,0,20,42l1.4.58a.71.71,0,0,0,.92-.35l5-10.4"/><path class="cls-1" d="M31.74,22.46A3.6,3.6,0,0,0,34,25.53l5.41,2.24,1.1-2.66L34.64,22.7l-.35-4.91a3.6,3.6,0,0,0-2.21-3.07L27,12.6a3.51,3.51,0,0,0-1.63-.27l-5.84.42A3.59,3.59,0,0,0,16.41,15l-2.24,5.41,2.66,1.1,2.41-5.82,5.69-.41-3.58,8.65a3.59,3.59,0,0,0,1.95,4.7l7.3,3-2.3,7.28a.74.74,0,0,0,.41.89l1.42.58a.71.71,0,0,0,.92-.35l3.53-7.31a3.59,3.59,0,0,0-1.86-4.88l-3.13-1.29,2.08-5Z"/><path class="cls-1" d="M16.28,22.79h0a1.43,1.43,0,0,1-1.88.78h0a1.44,1.44,0,0,1-.78-1.88h0"/><path class="cls-1" d="M41.79,25.66h0a1.44,1.44,0,0,1,.78,1.87h0a1.43,1.43,0,0,1-1.88.78h0"/><line class="cls-1" x1="29.59" y1="26.53" x2="21.63" y2="23.23"/><line class="cls-1" x1="37.67" y1="9.5" x2="43.37" y2="9.5"/><polyline class="cls-1" points="21.4 32.56 12.53 32.56 10.63 33.83"/><line class="cls-1" x1="8.84" y1="19.17" x2="5.67" y2="19.17"/><line class="cls-1" x1="4.41" y1="19.17" x2="3.77" y2="19.17"/><rect class="cls-1" x="44.63" y="6.33" width="8.87" height="6.33" rx="2" ry="2"/><circle class="cls-2" cx="51.28" cy="9.5" r="0.63"/><circle class="cls-2" cx="49.07" cy="9.5" r="0.63"/><circle class="cls-2" cx="46.85" cy="9.5" r="0.63"/><polyline class="cls-1" points="24.23 10 19.8 3.67 16.63 3.67"/><rect class="cls-1" x="6.5" y="0.5" width="8.87" height="6.33" rx="2" ry="2"/><line class="cls-1" x1="8.72" y1="3.67" x2="13.15" y2="3.67"/><rect class="cls-3" x="0.5" y="30.66" width="8.87" height="6.33" rx="2" ry="2" transform="translate(9.87 67.66) rotate(-180)"/><line class="cls-1" x1="3.03" y1="32.56" x2="3.03" y2="35.1"/><line class="cls-1" x1="4.93" y1="32.56" x2="4.93" y2="35.1"/><line class="cls-1" x1="6.83" y1="32.56" x2="6.83" y2="35.1"/></g></g></svg>