<?xml version="1.0"?>
<svg xmlns="http://www.w3.org/2000/svg" height="512px" viewBox="-43 1 511 511.99975" width="512px" class=""><g><path d="m407.722656 17.046875c-22.726562-22.730469-59.707031-22.730469-82.4375 0l-38.855468 38.855469-26.945313-26.949219-73.558594 73.558594 22.3125 22.3125-159.429687 159.425781c-12.707032 12.707031-19.503906 30.199219-18.941406 47.988281l-6.257813 6.257813c-8.367187 8.371094-12.976563 19.496094-12.976563 31.332031s4.609376 22.964844 12.976563 31.332031c1.25 1.25 2.566406 2.402344 3.929687 3.480469-1.863281 2.445313-3.800781 5.0625-5.746093 7.792969-19.085938 26.820312-21.292969 39.957031-21.292969 47.507812 0 28.703125 23.355469 52.058594 52.058594 52.058594 28.707031 0 52.0625-23.355469 52.0625-52.058594 0-7.550781-2.207032-20.6875-21.292969-47.507812-1.367187-1.914063-2.726563-3.773438-4.058594-5.558594 2.496094-1.644531 4.84375-3.550781 7.003907-5.714844l6.257812-6.253906c17.789062.554688 35.28125-6.234375 47.988281-18.945312l159.429688-159.425782 22.308593 22.308594 73.558594-73.558594-26.945312-26.945312 38.855468-38.855469c22.726563-22.726563 22.726563-59.710937-.003906-82.4375zm-355.164062 464.855469c-12.109375 0-21.960938-9.851563-21.960938-21.964844 0-6.59375 10.167969-23.160156 21.960938-38.535156 11.796875 15.375 21.964844 31.941406 21.964844 38.535156 0 12.113281-9.855469 21.964844-21.964844 21.964844zm66.679687-127.222656c-7.828125 7.828124-19.050781 11.472656-30.027343 9.738281l-7.566407-1.191407-16.652343 16.652344c-2.683594 2.6875-6.253907 4.164063-10.050782 4.164063s-7.363281-1.476563-10.050781-4.164063c-5.539063-5.539062-5.539063-14.558594 0-20.097656l16.652344-16.65625-1.191407-7.566406c-1.730468-10.972656 1.910157-22.195313 9.738282-30.023438l54.378906-54.378906h98.292969zm133.621094-133.621094h-98.292969l74.953125-74.953125 49.144531 49.144531zm69.398437-24.777344-1.027343-1.03125-92.738281-92.738281 30.992187-30.992188 5.664063 5.664063 56.164062 56.160156 31.941406 31.941406zm64.183594-118.078125-38.851562 38.855469-39.875-39.875 38.855468-38.855469c10.992188-10.992187 28.878907-10.992187 39.871094 0 10.996094 10.992187 10.996094 28.878906 0 39.875zm0 0" data-original="#000000" class="active-path" data-old_color="#0091FF" fill="#0089FF"/></g> </svg>
